<?xml version="1.0" encoding="UTF-8"?>
<svg id="Layer_2" xmlns="http://www.w3.org/2000/svg" viewBox="0 0 436.83 258.28">
  <defs>
    <style>
      .cls-1 {
        fill: #fff;
      }
    </style>
  </defs>
  <g id="Layer_1-2" data-name="Layer_1">
    <g>
      <path class="cls-1" d="M66.48,56.9c-2.43,4.39-6.17,7.93-11.21,10.62-5.04,2.7-11.3,4.04-18.77,4.04h-13.82v32.85H.39V12.91h36.11c7.3,0,13.47,1.26,18.51,3.78,5.04,2.52,8.82,6,11.34,10.43,2.52,4.43,3.78,9.52,3.78,15.25,0,5.3-1.22,10.15-3.65,14.53ZM44.32,50.84c2.09-2,3.13-4.82,3.13-8.47s-1.04-6.47-3.13-8.47c-2.09-2-5.26-3-9.52-3h-12.12v22.94h12.12c4.26,0,7.43-1,9.52-3Z"/>
      <path class="cls-1" d="M78.8,20.66c-2.48-2.3-3.71-5.15-3.71-8.54s1.24-6.37,3.71-8.67c2.48-2.3,5.67-3.45,9.58-3.45s6.97,1.15,9.45,3.45c2.48,2.3,3.71,5.19,3.71,8.67s-1.24,6.24-3.71,8.54c-2.48,2.3-5.63,3.45-9.45,3.45s-7.1-1.15-9.58-3.45ZM99.46,31.68v72.74h-22.29V31.68h22.29Z"/>
      <path class="cls-1" d="M111.26,48.23c3.08-5.65,7.39-9.99,12.91-13.04,5.52-3.04,11.84-4.56,18.97-4.56,9.12,0,16.75,2.39,22.88,7.17,6.13,4.78,10.15,11.52,12.06,20.21h-23.73c-2-5.56-5.87-8.34-11.6-8.34-4.09,0-7.35,1.59-9.78,4.76-2.43,3.17-3.65,7.71-3.65,13.62s1.22,10.45,3.65,13.62c2.43,3.17,5.69,4.76,9.78,4.76,5.74,0,9.6-2.78,11.6-8.34h23.73c-1.91,8.52-5.95,15.21-12.12,20.08-6.17,4.87-13.78,7.3-22.81,7.3-7.13,0-13.45-1.52-18.97-4.56-5.52-3.04-9.82-7.39-12.91-13.04-3.09-5.65-4.63-12.25-4.63-19.81s1.54-14.16,4.63-19.81Z"/>
      <path class="cls-1" d="M225.91,85.51v18.9h-11.34c-8.08,0-14.38-1.98-18.9-5.93-4.52-3.95-6.78-10.41-6.78-19.36v-28.94h-8.86v-18.51h8.86V13.95h22.29v17.73h14.6v18.51h-14.6v29.2c0,2.17.52,3.74,1.56,4.69,1.04.96,2.78,1.43,5.21,1.43h7.95Z"/>
      <path class="cls-1" d="M305.56,31.68v72.74h-22.29v-9.91c-2.26,3.22-5.32,5.8-9.19,7.76-3.87,1.96-8.15,2.93-12.84,2.93-5.56,0-10.47-1.24-14.73-3.71-4.26-2.48-7.56-6.06-9.91-10.75-2.35-4.69-3.52-10.21-3.52-16.56V31.68h22.16v39.5c0,4.87,1.26,8.65,3.78,11.34,2.52,2.7,5.91,4.04,10.17,4.04s7.78-1.35,10.3-4.04c2.52-2.69,3.78-6.47,3.78-11.34V31.68h22.29Z"/>
      <path class="cls-1" d="M349.1,34.35c3.91-2.3,8.25-3.45,13.04-3.45v23.6h-6.13c-5.56,0-9.73,1.2-12.51,3.58-2.78,2.39-4.17,6.58-4.17,12.58v33.76h-22.29V31.68h22.29v12.12c2.61-4,5.87-7.15,9.78-9.45Z"/>
      <path class="cls-1" d="M436.44,73.39h-50.45c.35,4.52,1.8,7.97,4.37,10.36,2.56,2.39,5.71,3.58,9.45,3.58,5.56,0,9.43-2.35,11.6-7.04h23.73c-1.22,4.78-3.41,9.08-6.58,12.91-3.17,3.83-7.15,6.82-11.93,9-4.78,2.17-10.12,3.26-16.03,3.26-7.13,0-13.47-1.52-19.03-4.56-5.56-3.04-9.91-7.39-13.04-13.04-3.13-5.65-4.69-12.25-4.69-19.81s1.54-14.16,4.63-19.81c3.08-5.65,7.41-9.99,12.97-13.04,5.56-3.04,11.95-4.56,19.16-4.56s13.3,1.48,18.77,4.43c5.47,2.96,9.75,7.17,12.84,12.65,3.08,5.47,4.63,11.86,4.63,19.16,0,2.09-.13,4.26-.39,6.52ZM414.01,61.01c0-3.82-1.3-6.86-3.91-9.12-2.61-2.26-5.87-3.39-9.78-3.39s-6.89,1.09-9.45,3.26c-2.56,2.17-4.15,5.26-4.76,9.26h27.9Z"/>
      <path class="cls-1" d="M22.29,132.09v54.75c0,5.47,1.35,9.69,4.04,12.64,2.69,2.96,6.65,4.43,11.86,4.43s9.21-1.48,11.99-4.43c2.78-2.95,4.17-7.17,4.17-12.64v-54.75h22.29v54.62c0,8.17-1.74,15.08-5.21,20.73-3.48,5.65-8.15,9.91-14.01,12.77-5.87,2.87-12.41,4.3-19.62,4.3s-13.67-1.41-19.36-4.24c-5.69-2.82-10.19-7.08-13.49-12.78-3.3-5.69-4.95-12.62-4.95-20.79v-54.62h22.29Z"/>
      <path class="cls-1" d="M119.02,152.95c3.82-2.08,8.3-3.13,13.43-3.13,6,0,11.43,1.52,16.29,4.56,4.87,3.04,8.71,7.39,11.54,13.04,2.82,5.65,4.24,12.21,4.24,19.68s-1.41,14.06-4.24,19.75c-2.83,5.69-6.67,10.08-11.54,13.17-4.87,3.09-10.3,4.63-16.29,4.63-5.04,0-9.5-1.04-13.36-3.13-3.87-2.09-6.89-4.78-9.06-8.08v44.84h-22.29v-107.41h22.29v10.3c2.17-3.39,5.17-6.13,8.99-8.21ZM137.2,174c-3.09-3.17-6.89-4.76-11.41-4.76s-8.19,1.61-11.28,4.82c-3.09,3.22-4.63,7.61-4.63,13.17s1.54,9.95,4.63,13.17c3.08,3.22,6.84,4.82,11.28,4.82s8.21-1.63,11.34-4.89c3.13-3.26,4.69-7.67,4.69-13.23s-1.54-9.93-4.63-13.1Z"/>
      <path class="cls-1" d="M172.53,221.19c-2.48-2.3-3.72-5.15-3.72-8.54s1.24-6.39,3.72-8.73c2.48-2.35,5.67-3.52,9.58-3.52s6.97,1.17,9.45,3.52c2.48,2.35,3.71,5.26,3.71,8.73s-1.24,6.24-3.71,8.54c-2.48,2.3-5.63,3.46-9.45,3.46s-7.1-1.15-9.58-3.46Z"/>
    </g>
  </g>
</svg>