<?xml version="1.0" encoding="UTF-8"?>
<svg xmlns="http://www.w3.org/2000/svg" version="1.1" viewBox="0 0 500 299.5">
  <defs>
    <style>
      .cls-1 {
        fill: #fff;
      }
    </style>
  </defs>
  <!-- Generator: Adobe Illustrator 28.7.4, SVG Export Plug-In . SVG Version: 1.2.0 Build 166)  -->
  <g>
    <g id="Layer_1">
      <g>
        <path class="cls-1" d="M78.3,67.3c-2.8,5-7,9-12.7,12-5.7,3.1-12.8,4.6-21.3,4.6h-15.6v37.2H3.4V17.5h40.9c8.3,0,15.3,1.4,21,4.3,5.7,2.9,10,6.8,12.8,11.8,2.9,5,4.3,10.8,4.3,17.3s-1.4,11.5-4.1,16.5ZM53.2,60.5c2.4-2.3,3.5-5.5,3.5-9.6s-1.2-7.3-3.5-9.6c-2.4-2.3-6-3.4-10.8-3.4h-13.7v26h13.7c4.8,0,8.4-1.1,10.8-3.4Z"/>
        <path class="cls-1" d="M92.2,26.3c-2.8-2.6-4.2-5.8-4.2-9.7s1.4-7.2,4.2-9.8c2.8-2.6,6.4-3.9,10.8-3.9s7.9,1.3,10.7,3.9c2.8,2.6,4.2,5.9,4.2,9.8s-1.4,7.1-4.2,9.7c-2.8,2.6-6.4,3.9-10.7,3.9s-8-1.3-10.8-3.9ZM115.6,38.8v82.4h-25.2V38.8h25.2Z"/>
        <path class="cls-1" d="M129,57.5c3.5-6.4,8.4-11.3,14.6-14.8,6.2-3.4,13.4-5.2,21.5-5.2s19,2.7,25.9,8.1c6.9,5.4,11.5,13,13.7,22.9h-26.9c-2.3-6.3-6.6-9.4-13.1-9.4s-8.3,1.8-11.1,5.4c-2.8,3.6-4.1,8.7-4.1,15.4s1.4,11.8,4.1,15.4c2.8,3.6,6.4,5.4,11.1,5.4s10.9-3.1,13.1-9.4h26.9c-2.2,9.6-6.7,17.2-13.7,22.7-7,5.5-15.6,8.3-25.8,8.3s-15.2-1.7-21.5-5.2c-6.3-3.4-11.1-8.4-14.6-14.8-3.5-6.4-5.2-13.9-5.2-22.4s1.7-16,5.2-22.4Z"/>
        <path class="cls-1" d="M258.8,99.7v21.4h-12.8c-9.2,0-16.3-2.2-21.4-6.7-5.1-4.5-7.7-11.8-7.7-21.9v-32.8h-10v-21h10v-20.1h25.2v20.1h16.5v21h-16.5v33.1c0,2.5.6,4.2,1.8,5.3,1.2,1.1,3.1,1.6,5.9,1.6h9Z"/>
        <path class="cls-1" d="M349,38.8v82.4h-25.2v-11.2c-2.6,3.6-6,6.6-10.4,8.8-4.4,2.2-9.2,3.3-14.5,3.3s-11.9-1.4-16.7-4.2c-4.8-2.8-8.6-6.9-11.2-12.2-2.7-5.3-4-11.6-4-18.7v-48.1h25.1v44.7c0,5.5,1.4,9.8,4.3,12.8,2.9,3.1,6.7,4.6,11.5,4.6s8.8-1.5,11.7-4.6c2.9-3,4.3-7.3,4.3-12.8v-44.7h25.2Z"/>
        <path class="cls-1" d="M398.3,41.8c4.4-2.6,9.3-3.9,14.8-3.9v26.7h-6.9c-6.3,0-11,1.4-14.2,4.1-3.2,2.7-4.7,7.5-4.7,14.2v38.2h-25.2V38.8h25.2v13.7c3-4.5,6.6-8.1,11.1-10.7Z"/>
        <path class="cls-1" d="M497.2,86h-57.1c.4,5.1,2,9,4.9,11.7,2.9,2.7,6.5,4.1,10.7,4.1,6.3,0,10.7-2.7,13.1-8h26.9c-1.4,5.4-3.9,10.3-7.5,14.6-3.6,4.3-8.1,7.7-13.5,10.2-5.4,2.5-11.5,3.7-18.2,3.7s-15.3-1.7-21.5-5.2c-6.3-3.4-11.2-8.4-14.8-14.8-3.5-6.4-5.3-13.9-5.3-22.4s1.7-16,5.2-22.4c3.5-6.4,8.4-11.3,14.7-14.8,6.3-3.4,13.5-5.2,21.7-5.2s15.1,1.7,21.3,5c6.2,3.3,11,8.1,14.5,14.3,3.5,6.2,5.2,13.4,5.2,21.7s-.1,4.8-.4,7.4ZM471.8,72c0-4.3-1.5-7.8-4.4-10.3-3-2.6-6.6-3.8-11.1-3.8s-7.8,1.2-10.7,3.7c-2.9,2.5-4.7,6-5.4,10.5h31.6Z"/>
        <path class="cls-1" d="M28.2,152.5v62c0,6.2,1.5,11,4.6,14.3,3,3.3,7.5,5,13.4,5s10.4-1.7,13.6-5c3.1-3.3,4.7-8.1,4.7-14.3v-62h25.2v61.8c0,9.3-2,17.1-5.9,23.5-3.9,6.4-9.2,11.2-15.9,14.5-6.6,3.2-14,4.9-22.2,4.9s-15.5-1.6-21.9-4.8c-6.4-3.2-11.5-8-15.3-14.5-3.7-6.4-5.6-14.3-5.6-23.5v-61.8h25.2Z"/>
        <path class="cls-1" d="M137.8,176.1c4.3-2.4,9.4-3.5,15.2-3.5s12.9,1.7,18.4,5.2c5.5,3.4,9.9,8.4,13.1,14.8,3.2,6.4,4.8,13.8,4.8,22.3s-1.6,15.9-4.8,22.4c-3.2,6.4-7.6,11.4-13.1,14.9-5.5,3.5-11.7,5.2-18.4,5.2s-10.8-1.2-15.1-3.5c-4.4-2.4-7.8-5.4-10.3-9.2v50.8h-25.2v-121.6h25.2v11.7c2.5-3.8,5.9-6.9,10.2-9.3ZM158.3,199.9c-3.5-3.6-7.8-5.4-12.9-5.4s-9.3,1.8-12.8,5.5c-3.5,3.6-5.2,8.6-5.2,14.9s1.7,11.3,5.2,14.9c3.5,3.6,7.7,5.5,12.8,5.5s9.3-1.8,12.8-5.5c3.5-3.7,5.3-8.7,5.3-15s-1.7-11.2-5.2-14.8Z"/>
        <path class="cls-1" d="M198.3,253.3c-2.8-2.6-4.2-5.8-4.2-9.7s1.4-7.2,4.2-9.9c2.8-2.7,6.4-4,10.8-4s7.9,1.3,10.7,4c2.8,2.7,4.2,6,4.2,9.9s-1.4,7.1-4.2,9.7c-2.8,2.6-6.4,3.9-10.7,3.9s-8-1.3-10.8-3.9Z"/>
      </g>
    </g>
  </g>
</svg>